<svg xmlns="http://www.w3.org/2000/svg" viewBox="0 0 100 100">
  <defs>
    <radialGradient id="glow" cx="50%" cy="50%" r="50%">
      <stop offset="0%" style="stop-color:#06b6d4;stop-opacity:1" />
      <stop offset="100%" style="stop-color:#0891b2;stop-opacity:0.8" />
    </radialGradient>
  </defs>
  
  <!-- Neuron branches -->
  <g stroke="#06b6d4" stroke-width="2" fill="none">
    <path d="M50,15 Q40,25 35,30 Q30,35 25,40 L20,45" />
    <path d="M50,15 Q60,25 65,30 Q70,35 75,40 L80,45" />
    <path d="M50,85 Q40,75 35,70 Q30,65 25,60 L20,55" />
    <path d="M50,85 Q60,75 65,70 Q70,65 75,60 L80,55" />
    <path d="M15,50 Q25,45 30,42 Q35,38 40,35" />
    <path d="M85,50 Q75,45 70,42 Q65,38 60,35" />
    <path d="M15,50 Q25,55 30,58 Q35,62 40,65" />
    <path d="M85,50 Q75,55 70,58 Q65,62 60,65" />
  </g>
  
  <!-- Central circle -->
  <circle cx="50" cy="50" r="30" fill="url(#glow)" />
  
  <!-- Glowing dots pattern in center -->
  <g fill="#ffffff" opacity="0.9">
    <circle cx="50" cy="50" r="3" />
    <circle cx="45" cy="45" r="2" />
    <circle cx="55" cy="45" r="2" />
    <circle cx="45" cy="55" r="2" />
    <circle cx="55" cy="55" r="2" />
    <circle cx="42" cy="50" r="1.5" />
    <circle cx="58" cy="50" r="1.5" />
    <circle cx="50" cy="42" r="1.5" />
    <circle cx="50" cy="58" r="1.5" />
  </g>
</svg>
