<svg xmlns="http://www.w3.org/2000/svg" viewBox="0 0 96 96" width="96" height="96" fill="none">
  <!-- Neural network mesh icon - sky blue on transparent background -->
  <g stroke="#0ea5e9" stroke-width="2" stroke-linecap="round">
    <line x1="48" y1="20" x2="24" y2="44" />
    <line x1="48" y1="20" x2="72" y2="44" />
    <line x1="48" y1="20" x2="48" y2="48" />
    <line x1="24" y1="44" x2="48" y2="48" />
    <line x1="72" y1="44" x2="48" y2="48" />
    <line x1="24" y1="44" x2="24" y2="72" />
    <line x1="72" y1="44" x2="72" y2="72" />
    <line x1="48" y1="48" x2="24" y2="72" />
    <line x1="48" y1="48" x2="72" y2="72" />
    <line x1="48" y1="48" x2="48" y2="76" />
    <line x1="24" y1="72" x2="48" y2="76" />
    <line x1="72" y1="72" x2="48" y2="76" />
  </g>
  <g fill="#38bdf8">
    <circle cx="48" cy="20" r="6" />
    <circle cx="24" cy="44" r="6" />
    <circle cx="72" cy="44" r="6" />
    <circle cx="48" cy="48" r="7" />
    <circle cx="24" cy="72" r="6" />
    <circle cx="72" cy="72" r="6" />
    <circle cx="48" cy="76" r="6" />
  </g>
</svg>
